<svg width="800" height="200" viewBox="0 0 800 200" fill="none" xmlns="http://www.w3.org/2000/svg">
<path d="M143.335 132.428C166.839 132.428 178.365 120.676 178.365 106.89C178.365 77.736 133.504 86.776 133.504 74.685C133.504 70.73 136.894 67.566 146.273 67.566C153.166 67.566 160.624 69.6 168.195 73.668L175.088 57.057C167.291 52.537 156.669 50.164 146.386 50.164C122.882 50.164 111.356 61.69 111.356 75.815C111.356 105.195 156.33 96.042 156.33 108.585C156.33 112.427 152.714 115.026 143.448 115.026C134.295 115.026 124.351 111.862 117.345 107.229L110 123.727C117.458 128.925 130.34 132.428 143.335 132.428Z" fill="#8C1CFC"/>
<path d="M225.031 69.6V99.093C225.031 109.376 219.833 113.557 213.505 113.557C207.064 113.557 203.335 109.828 203.335 100.336V69.6H181.865V103.839C181.865 123.275 192.826 131.863 207.855 131.863C214.861 131.863 221.415 129.377 226.048 124.292V130.846H246.501V69.6H225.031Z" fill="#8C1CFC"/>
<path d="M291.807 68.583C283.784 68.583 277.795 70.843 273.727 75.702V69.6H253.274V152.768H274.744V125.422C278.925 129.716 284.688 131.863 291.807 131.863C308.418 131.863 321.865 119.659 321.865 100.223C321.865 80.787 308.418 68.583 291.807 68.583ZM287.287 114.8C280.055 114.8 274.405 109.489 274.405 100.223C274.405 90.957 280.055 85.646 287.287 85.646C294.519 85.646 300.169 90.957 300.169 100.223C300.169 109.489 294.519 114.8 287.287 114.8Z" fill="#8C1CFC"/>
<path d="M353.471 68.583C343.866 68.583 333.47 71.069 326.464 75.702L333.696 90.279C337.877 87.002 344.431 84.968 350.307 84.968C358.782 84.968 362.963 88.471 363.302 94.686H351.098C332.114 94.686 323.865 101.692 323.865 112.992C323.865 123.614 332.001 131.863 346.691 131.863C355.618 131.863 361.72 128.812 364.771 122.936V130.846H384.772V96.833C384.772 77.397 373.359 68.583 353.471 68.583ZM352.68 118.303C347.595 118.303 344.657 115.704 344.657 112.088C344.657 108.359 347.143 105.873 354.036 105.873H363.302V111.184C361.607 116.043 357.426 118.303 352.68 118.303Z" fill="#8C1CFC"/>
<path d="M431.053 68.583C423.821 68.583 417.38 70.843 412.634 75.25V47H391.164V130.846H412.634V101.24C412.634 91.07 417.945 86.776 424.838 86.776C431.053 86.776 434.895 90.505 434.895 99.319V130.846H456.365V95.816C456.365 76.832 445.404 68.583 431.053 68.583Z" fill="#8C1CFC"/>
<path d="M501.398 68.583C493.375 68.583 487.386 70.843 483.318 75.702V69.6H462.865V152.768H484.335V125.422C488.516 129.716 494.279 131.863 501.398 131.863C518.009 131.863 531.456 119.659 531.456 100.223C531.456 80.787 518.009 68.583 501.398 68.583ZM496.878 114.8C489.646 114.8 483.996 109.489 483.996 100.223C483.996 90.957 489.646 85.646 496.878 85.646C504.11 85.646 509.76 90.957 509.76 100.223C509.76 109.489 504.11 114.8 496.878 114.8Z" fill="#8C1CFC"/>
<path d="M575.709 68.583C567.686 68.583 561.697 70.843 557.629 75.702V69.6H537.176V152.768H558.646V125.422C562.827 129.716 568.59 131.863 575.709 131.863C592.32 131.863 605.767 119.659 605.767 100.223C605.767 80.787 592.32 68.583 575.709 68.583ZM571.189 114.8C563.957 114.8 558.307 109.489 558.307 100.223C558.307 90.957 563.957 85.646 571.189 85.646C578.421 85.646 584.071 90.957 584.071 100.223C584.071 109.489 578.421 114.8 571.189 114.8Z" fill="#8C1CFC"/>
<path d="M654.771 69.6L639.629 107.003L624.6 69.6H602.565L628.781 131.637C626.973 135.253 624.6 136.835 620.419 136.835C617.029 136.835 613.413 135.479 610.927 133.219L603.469 148.248C607.537 151.638 614.769 153.785 621.21 153.785C633.301 153.785 642.341 149.152 648.782 133.332L675.224 69.6H654.771Z" fill="#8C1CFC"/>
<path d="M676.483 131.863C683.828 131.863 689.365 126.552 689.365 119.094C689.365 111.41 683.828 106.438 676.483 106.438C669.251 106.438 663.601 111.41 663.601 119.094C663.601 126.552 669.251 131.863 676.483 131.863Z" fill="#8C1CFC"/>
</svg>
